# xmcd
#
# Track frame offsets: 
#        150
#        18162
#        39150
#        58663
#        85411
#        98626
#        115713
#        136562
#        152628
#        164472
#        177381
#        195701
#        217953
#
# Disc length: 3028 seconds
#
# Revision: 0
# Processed by: cddbd v1.5.1PL0 Copyright (c) Steve Scherf et al.
# Submitted via: ExactAudioCopy v0.95a5
#
DISCID=9c0bd20d
DTITLE=Jeff Lux - Howl All Night
DYEAR=1998
DGENRE=Blues
TTITLE0=Hired Gun
TTITLE1=Lizzy Annie
TTITLE2=Big Baby Blues
TTITLE3=Makes My Blood Run Cold
TTITLE4=It's My Fault
TTITLE5=Turn My Back On Love
TTITLE6=Broke Down In Blues Town
TTITLE7=Flood Of Tears
TTITLE8=You and Me and Mr. Blues
TTITLE9=Movin Around
TTITLE10=A Gust Of Wind
TTITLE11=Before The Lights Go Out
TTITLE12=[Blank]
EXTD=
EXTT0=
EXTT1=
EXTT2=
EXTT3=
EXTT4=
EXTT5=
EXTT6=
EXTT7=
EXTT8=
EXTT9=
EXTT10=
EXTT11=
EXTT12=
PLAYORDER=
